<svg xmlns="http://www.w3.org/2000/svg" viewBox="0 0 128 128" width="45" height="45">
  <path fill="#F90" d="M39.03 55.75c0 1.7.18 3.07.52 4.07.38 1 .94 2.1 1.72 3.27.28.45.4.9.4 1.32 0 .57-.34 1.15-1.05 1.72l-3.48 2.32c-.5.34-.99.5-1.45.5-.57 0-1.13-.28-1.7-.82-.8-.85-1.5-1.77-2.1-2.7a45.1 45.1 0 01-1.77-3.4c-4.45 5.25-10.04 7.88-16.76 7.88-4.8 0-8.6-1.37-11.4-4.1-2.8-2.73-4.22-6.38-4.22-10.94 0-4.83 1.7-8.75 5.13-11.74 3.42-2.99 7.98-4.49 13.73-4.49 1.9 0 3.87.15 5.95.42 2.08.28 4.22.7 6.47 1.17v-4.1c0-4.27-.9-7.26-2.67-9-1.8-1.75-4.83-2.6-9.13-2.6-1.95 0-3.97.24-6.02.75-2.05.5-4.04 1.12-5.98 1.87-.9.4-1.57.63-1.95.72-.38.1-.67.15-.93.15-.8 0-1.2-.57-1.2-1.75V23.8c0-.9.12-1.58.38-2 .25-.43.7-.85 1.37-1.27 1.95-1 4.3-1.84 7.04-2.53 2.74-.72 5.65-1.07 8.73-1.07 6.65 0 11.52 1.5 14.63 4.52 3.08 3 4.65 7.56 4.65 13.65v17.95zM20.04 62c1.82 0 3.7-.34 5.67-1 1.97-.67 3.73-1.87 5.22-3.57.88-1.05 1.55-2.23 1.87-3.57.33-1.34.5-2.96.5-4.87v-2.35c-1.63-.4-3.35-.72-5.12-.94-1.77-.22-3.48-.34-5.19-.34-3.7 0-6.42.72-8.2 2.2-1.77 1.46-2.64 3.52-2.64 6.2 0 2.53.65 4.42 1.97 5.7 1.3 1.3 3.17 1.94 5.62 1.94zm44.17 5.93c-1 0-1.67-.17-2.12-.53-.45-.33-.85-1.05-1.2-2.05L47.06 18.5c-.35-1.03-.53-1.72-.53-2.1 0-.83.42-1.28 1.25-1.28h5.1c1.05 0 1.75.17 2.15.53.44.33.8 1.05 1.15 2.05l12.1 47.7L80.25 17.7c.32-1.03.68-1.72 1.12-2.05.45-.33 1.18-.53 2.2-.53h4.15c1.07 0 1.77.17 2.22.53.43.33.82 1.05 1.1 2.05l12.22 48.35L115.72 17.7c.35-1.03.73-1.72 1.17-2.05.45-.33 1.12-.53 2.15-.53h4.83c.82 0 1.27.43 1.27 1.28 0 .25-.05.5-.12.78-.08.27-.2.65-.42 1.14l-14.14 47.85c-.35 1.03-.73 1.72-1.17 2.05-.45.33-1.15.53-2.12.53h-4.47c-1.07 0-1.77-.17-2.22-.55-.44-.37-.82-1.07-1.1-2.1L87.5 20.2l-11.9 47.6c-.3 1.03-.67 1.73-1.1 2.1-.45.38-1.17.55-2.24.55h-4.45z"/>
  <path fill="#F90" d="M120.24 88.62c-12.32 9.1-30.2 13.92-45.58 13.92-21.58 0-41.02-7.97-55.72-21.22-1.15-1.05-.12-2.47 1.27-1.65 15.87 9.22 35.47 14.77 55.72 14.77 13.65 0 28.67-2.83 42.48-8.7 2.07-.9 3.82 1.36 1.83 2.88z"/>
  <path fill="#F90" d="M125.1 83.1c-1.58-2.02-10.47-1-14.47-.5-1.22.15-1.4-1.12-.3-2.02 7.08-4.97 18.72-3.55 20.07-1.87 1.35 1.72-.36 13.38-7.02 18.97-1.02.85-2 .4-1.55-.72 1.5-3.73 4.85-12.85 3.27-14.86z"/>
</svg>
